<svg height="487pt" viewBox="0 0 487.95978 487" width="487pt" xmlns="http://www.w3.org/2000/svg"><path d="m153.414062 360.242188-37.910156 37.910156c79.578125 66.527344 196.78125 61.300781 270.125-12.042969 73.347656-73.347656 78.570313-190.546875 12.042969-270.128906l-84.097656 84.109375zm77.367188-127.792969 41.640625-41.636719 41.160156-41.152344 58.878907-58.890625c-79.578126-66.527343-196.78125-61.300781-270.125 12.042969s-78.570313 190.546875-12.042969 270.128906l57.78125-57.769531zm180.0625-154.847657c59.777344 59.578126 83.183594 146.550782 61.386719 228.085938-21.800781 81.535156-85.484375 145.21875-167.023438 167.019531-81.535156 21.796875-168.503906-1.609375-228.085937-61.386719-59.777344-59.578124-83.183594-146.550781-61.382813-228.085937 21.796875-81.535156 85.484375-145.21875 167.019531-167.019531 81.535157-21.800782 168.503907 1.609375 228.085938 61.386718zm0 0" fill="#00acea"/><g fill="#f7caa5"><path d="m380.042969 249.339844-59.582031 114.460937c-9.957032 19.128907-28.808594 30.988281-49.257813 30.988281h-66.820313c-22.5 0-41.941406-14.117187-50.96875-34.546874l160.160157-160.152344.039062.039062.050781 67.613282 16.667969-20.300782c11.210938-13.652344 30.601563-15.109375 43.480469-3.261718zm0 0"/><path d="m313.582031 149.660156-41.160156 41.152344-.019531-.023438c-.019532-3.808593 0-31.160156.011718-62.976562.027344-5.664062 2.171876-11.113281 6.019532-15.273438 3.734375-4.085937 9.011718-6.429687 14.550781-6.457031 11.359375 0 20.570313 9.859375 20.578125 22.019531l.011719 21.550782zm0 0"/><path d="m272.414062 127.8125c-.011718 31.816406-.03125 59.167969-.011718 62.976562l.019531.023438-41.640625 41.636719v-136.277344c0-12.171875 9.210938-22.042969 20.582031-22.042969h.480469c11.359375 0 20.570312 9.863282 20.578125 22.03125 0 10.589844 0 21.351563-.007813 31.652344zm0 0"/><path d="m189.582031 164.179688v-49.9375c0-12.179688 9.210938-22.042969 20.582031-22.042969h.039063c11.371094 0 20.578125 9.863281 20.578125 22.042969v118.207031l-82.707031 82.722656-.089844-.089844c-.011719-1.28125-.011719-2.582031-.011719-3.871093-.050781-53.808594-.078125-112.421876 0-147.089844.03125-12.148438 9.230469-21.980469 20.582032-21.980469h.449218c11.367188 0 20.578125 9.871094 20.578125 22.039063zm0 0"/></g><path d="m243.984375.480469c-98.683594-.003907-187.648437 59.441406-225.414063 150.613281-37.761718 91.167969-16.886718 196.109375 52.894532 265.886719 95.28125 95.277343 249.757812 95.277343 345.035156 0 95.28125-95.28125 95.277344-249.757813 0-345.035157-45.652344-45.90625-107.773438-71.640624-172.515625-71.464843zm161.199219 405.179687c-57.480469 58.144532-141.695313 81.058594-220.710938 60.046875-79.015625-21.007812-140.726562-82.722656-161.738281-161.738281-21.007813-79.011719 1.902344-163.226562 60.046875-220.707031 57.480469-58.144531 141.695312-81.058594 220.710938-60.046875 79.015624 21.007812 140.726562 82.722656 161.738281 161.738281 21.007812 79.011719-1.902344 163.226563-60.046875 220.707031zm0 0" fill="#083863"/><path d="m153.730469 320.828125 82.710937-82.71875 82.796875-82.792969 58.878907-58.890625c1.585937-1.585937 2.433593-3.765625 2.335937-6.003906-.097656-2.242187-1.132813-4.339844-2.851563-5.78125-82.757812-69.1875-204.644531-63.757813-280.921874 12.519531-76.277344 76.277344-81.707032 198.164063-12.515626 280.921875 1.441407 1.71875 3.535157 2.753907 5.777344 2.851563.117188.003906.234375.007812.351563.007812 2.121093 0 4.15625-.84375 5.65625-2.34375l57.777343-57.769531zm2.242187-156.527344c.019532-7.71875 5.664063-13.839843 12.582032-13.839843h.449218c6.9375 0 12.980469 5.980468 12.980469 13.71875v71.28125h16v-121.21875c0-7.742188 5.542969-14.042969 12.519531-14.042969 6.9375 0 12.480469 6.300781 12.480469 14.042969v114.898437l-66.925781 66.910156c-.050782-62.269531-.148438-105.414062-.085938-131.75zm124.429688-10.992187.011718-25.414063c.003907-3.667969 1.382813-7.203125 3.871094-9.902343 2.222656-2.464844 5.378906-3.886719 8.699219-3.914063 6.929687 0 12.574219 6.292969 12.582031 14.023437l.007813 18.246094-25.175781 25.175782c0-5.28125 0-11.429688.003906-18.214844zm-15.988282-25.46875c0 .152344-.011718.621094-.011718.621094h.011718l-.011718 25.011718c-.003906 15.898438.089844 28.226563.09375 34.136719l-25.511719 25.53125v-116.96875c0-7.742187 5.441406-13.710937 12.378906-13.710937h.480469c6.929688 0 12.574219 6.21875 12.578125 13.949218 0 10.542969 0 21.167969-.007813 31.429688zm-173.464843 233.132812c-44.277344-58.164062-51.757813-136.398437-19.300781-201.894531 32.457031-65.5 99.234374-106.9375 172.335937-106.9375 42.125-.222656 83.121094 13.597656 116.511719 39.285156l-38.933594 38.933594v-2.261719c-.011719-16.550781-13.054688-30.011718-28.796875-30.011718-4.441406.007812-8.816406 1.046874-12.78125 3.035156v-4.964844c0-16.554688-12.394531-29.695312-28.140625-29.695312h-.480469c-13.027343 0-24.035156 9.046874-27.46875 21.59375-4.09375-2.441407-8.765625-3.742188-13.53125-3.769532-15.757812 0-28.378906 13.390625-28.378906 29.957032v22.972656c-4.0625-1.898438-8.5-2.839844-12.980469-2.753906h-.449218c-15.71875 0-28.539063 13.28125-28.582032 29.800781-.066406 28.453125-.066406 76.5 0 147.027343v.699219zm0 0" fill="#083863"/><path d="m398.023438 107.988281c-2.242188-.097656-4.421876.75-6.007813 2.335938l-282.167969 282.167969c-1.589844 1.585937-2.433594 3.765624-2.335937 6.007812.097656 2.242188 1.132812 4.339844 2.851562 5.78125 82.757813 69.1875 204.644531 63.757812 280.921875-12.519531 76.277344-76.277344 81.707032-198.164063 12.515625-280.921875-1.441406-1.71875-3.539062-2.753906-5.777343-2.851563zm-92.359376 159.757813c0 3.378906 2.125 6.390625 5.304688 7.527344 3.179688 1.136718 6.734375.152343 8.875-2.457032l16.671875-20.296875c3.835937-4.820312 9.5-7.824219 15.640625-8.300781 5.988281-.390625 11.875 1.726562 16.242188 5.847656.097656.097656.203124.1875.3125.273438l1.25 1.039062-56.597657 108.5625c-8.566406 16.460938-24.722656 26.519532-42.160156 26.519532h-66.820313c-16.824218 0-32.5-9.480469-41.226562-24.8125l142.46875-142.378907zm74.3125 112.707031c-68.058593 68.039063-175.921874 75.320313-252.503906 17.042969l24.058594-24.222656c11.902344 18.121093 31.65625 29.1875 52.851562 29.1875h66.820313c23.425781 0 45.019531-13.359376 56.355469-35.132813l59.582031-114.375c1.738281-3.332031.90625-7.425781-1.996094-9.816406l-6.078125-5.011719c-7.582031-7.015625-17.722656-10.589844-28.027344-9.878906-10.53125.765625-20.273437 5.878906-26.890624 14.113281l-2.5 3.054687-.03125-42.050781 75.402343-75.414062c58.273438 76.582031 50.992188 184.445312-17.042969 252.5zm0 0" fill="#083863"/></svg>